<svg xmlns="http://www.w3.org/2000/svg" viewBox="0 0 1231.68 240.27"><defs><style>.cls-1{fill:#fff;}.cls-2{fill:#121b33;}.cls-3{fill:none;}</style></defs><title>191006_vsd_logo_Zeichenfläche 7darkblue_on_white</title><g id="Artboard4"><g id="Ebene_3-2" data-name="Ebene 3"><polygon class="cls-1" points="0 0 1231.68 0 1231.68 240.27 0 240.27 0 0"/></g><g id="Ebene_2" data-name="Ebene 2"><g id="Text"><path class="cls-2" d="M403.41,68.33l-36.2,102.3h-29.8l-35.9-102.3h31.3l19.9,64,19.9-64Z"/><path class="cls-2" d="M438,79.53c0,7.1-5.2,11.9-13.2,11.9s-13.3-4.9-13.3-11.9c0-7.2,5.3-11.2,13.3-11.2S438,72.33,438,79.53Zm-.1,17.3v73.8h-26.5V96.83Z"/><path class="cls-2" d="M489.81,126.13c12.8,4.3,21.8,9.4,21.8,22.1,0,17.7-14.1,22.5-32.3,22.5-13.5,0-23-2.8-32-7.8l7.7-17.7c6.6,3.8,16.1,6.6,21.8,6.6,7,0,8.9-1,8.9-2.9,0-3.1-3.6-4.6-15.4-8.8-10.5-3.8-19.8-9.1-19.8-21.1,0-16.8,15.1-22.1,32.4-22.1,12,0,20.4,2.4,28.5,7.3l-8.2,16.6a35.88,35.88,0,0,0-18.6-5c-6.7,0-8.2,1-8.2,3.1C476.41,121.43,478.61,122.43,489.81,126.13Z"/><path class="cls-2" d="M602.41,96.83v38.8c0,22.4-16.6,34.9-39,34.9s-39.1-12.5-39.1-34.9V96.83h26.5v37.5c0,10.2,4.5,14.4,12.6,14.4s12.5-4.2,12.5-14.4V96.83Z"/><path class="cls-2" d="M697.21,96.83l.2,73.9H672l-.2-10.3a27.74,27.74,0,0,1-21.9,10.3c-20.1,0-36.4-18-36.4-37.3a36.26,36.26,0,0,1,36.4-36.6,27.72,27.72,0,0,1,21.9,10.5V96.83Zm-24.3,34.8c-1.5-8.4-8-13.8-16.3-13.8-11.2,0-16.9,5.7-16.9,15.6,0,9.1,6.3,16.3,16.9,16.3,8.4,0,14.8-5.3,16.3-13.7Z"/><path class="cls-2" d="M738.71,68.33v102.4h-26.5V68.33Z"/><path class="cls-2" d="M889.91,117.63c0,31.1-23.7,53.1-55.7,53.1h-38.7V68.33h38.7C868.81,68.33,889.91,87.83,889.91,117.63Zm-31.3-.5c0-16.3-7.1-24.1-24.4-24.1h-9.6v52.3h9.6C850.61,145.33,858.61,133,858.61,117.13Z"/><path class="cls-2" d="M965.11,100.13l-11.6,23a23.29,23.29,0,0,0-9.9-2.3c-8.6,0-14.2,6.5-14.2,22.4v27.5h-26.5V96.83h25.9v11.3c3.9-6.8,13.5-11.3,21-11.3C955.71,96.83,960.41,97.13,965.11,100.13Z"/><path id="i" class="cls-2" d="M998.11,96.83v73.8h-26.5V96.83Z"/><path class="cls-2" d="M1096.61,96.83l-31.7,73.8h-27.2L1006,96.83h29.2l16.6,44.5,16.6-44.5Z"/><path class="cls-2" d="M1173.21,141.73h-49.5c2,7.7,7.5,10.2,16.7,10.2a59.39,59.39,0,0,0,19.7-3.2l5.3,17.6c-8.1,3.2-17.6,4.3-27.3,4.3-22.2,0-41-14.2-41-36.9,0-22.3,17.1-36.8,39.7-36.8,23.3,0,38.7,13.9,38.7,32.5A39,39,0,0,1,1173.21,141.73Zm-50.1-15.4h27.3c-1.7-7.1-5.9-11.4-13.7-11.4C1129.41,114.93,1125.11,119.23,1123.11,126.33Z"/></g><path class="cls-2" d="M998,79.33c0,7.1-5.2,11.9-13.2,11.9s-13.3-4.9-13.3-11.9c0-7.2,5.3-11.2,13.3-11.2S998,72.13,998,79.33Z"/></g><path class="cls-3" d="M113.62,141.24a53.64,53.64,0,0,0,8.77,13.25A121.33,121.33,0,0,1,69.48,118.9a121.65,121.65,0,0,1,53-35.55,52.85,52.85,0,0,0-8.89,57.89Z"/><path class="cls-3" d="M253.62,119.05a120.94,120.94,0,0,1-53.12,35.58,52.9,52.9,0,0,0-.08-71.27A121.44,121.44,0,0,1,253.62,119.05Z"/><path class="cls-2" d="M263,116.21A130.45,130.45,0,0,0,178.6,69.12a92.47,92.47,0,0,0-10.79-1,135.27,135.27,0,0,0-23.27,1l-.49.06-.11,0A130.38,130.38,0,0,0,60.11,116l-2.33,2.84,2.32,2.85a130.52,130.52,0,0,0,84.22,47.07,95.61,95.61,0,0,0,10.85,1c1.86.09,3.76.13,5.69.13a142.39,142.39,0,0,0,17.58-1.12v0A129.93,129.93,0,0,0,263,121.9l2.32-2.85ZM69.48,118.9a121.65,121.65,0,0,1,53-35.55,52.85,52.85,0,0,0-8.89,57.89,53.64,53.64,0,0,0,8.77,13.25A121.33,121.33,0,0,1,69.48,118.9ZM161.56,163a44.07,44.07,0,1,1,44.07-44.06A44.07,44.07,0,0,1,161.56,163Zm38.94-8.36a52.9,52.9,0,0,0-.08-71.27,121.44,121.44,0,0,1,53.2,35.69A120.94,120.94,0,0,1,200.5,154.63Z"/><path class="cls-2" d="M185.93,98a34.81,34.81,0,0,0-10.46-8.45,29.9,29.9,0,0,0-12.31-3.37c-8.14-.39-16.32,2.74-23,8.84s-11,14.5-11.32,22.3c-.49,9.89,2.44,18.42,8.48,24.67,5.6,5.79,13.65,9.22,22.65,9.67.55,0,1.11,0,1.66,0a32.74,32.74,0,0,0,32.68-31.17C194.66,113,191.54,104.6,185.93,98Zm-44.39,4.17,13,13.76H135A26.93,26.93,0,0,1,141.54,102.17Zm-6.68,19.76H154l-14.36,13.6A25.75,25.75,0,0,1,134.86,121.93Zm23.68,23.61a28,28,0,0,1-14.7-5.7l14.7-13.93Zm0-34.14L145.87,98a26.72,26.72,0,0,1,12.67-5.64Zm29.51,4.53h-19l13.38-12.68A29,29,0,0,1,188.05,115.93ZM164.54,92.32a25.41,25.41,0,0,1,13.85,6.52L164.54,112Zm0,53.22V126.46l13.13,13.86A26.47,26.47,0,0,1,164.54,145.54ZM182,136.2l-13.52-14.27h19.65A26.61,26.61,0,0,1,182,136.2Z"/></g></svg>