{
    "asset" : {
        "generator" : "Khronos glTF Blender I/O v0.9.36",
        "version" : "2.0"
    },
    "scene" : 0,
    "scenes" : [
        {
            "name" : "Scene",
            "nodes" : [
                0,
                1,
                2
            ]
        }
    ],
    "nodes" : [
        {
            "mesh" : 0,
            "name" : "Cube.001",
            "rotation" : [
                -0.013186484575271606,
                0,
                0,
                0.9999130368232727
            ],
            "scale" : [
                0.06819040328264236,
                0.14620132744312286,
                0.14620132744312286
            ],
            "translation" : [
                -2.3289294242858887,
                1.500868320465088,
                -0.14086437225341797
            ]
        },
        {
            "mesh" : 1,
            "name" : "Cube",
            "scale" : [
                0.020220667123794556,
                0.14354798197746277,
                0.14354798197746277
            ],
            "translation" : [
                -2.3987107276916504,
                1.475827932357788,
                -1.4892610311508179
            ]
        },
        {
            "mesh" : 2,
            "name" : "Cube.002",
            "rotation" : [
                0,
                0.9882667660713196,
                0,
                0.1527378410100937
            ],
            "scale" : [
                0.3971644937992096,
                0.3971644937992096,
                0.2060920000076294
            ],
            "translation" : [
                -2.4392457008361816,
                0.8265511989593506,
                1.879441499710083
            ]
        }
    ],
    "materials" : [
        {
            "doubleSided" : true,
            "name" : "Material.001",
            "pbrMetallicRoughness" : {
                "baseColorFactor" : [
                    0.011088231578469276,
                    0.011088231578469276,
                    0.011088231578469276,
                    1
                ],
                "metallicFactor" : 0.5230125784873962,
                "roughnessFactor" : 0.5
            }
        },
        {
            "doubleSided" : true,
            "name" : "Material.005",
            "pbrMetallicRoughness" : {
                "baseColorFactor" : [
                    0.3307638168334961,
                    0.3307638168334961,
                    0.3307638168334961,
                    1
                ],
                "metallicFactor" : 0.6290909647941589,
                "roughnessFactor" : 0
            }
        },
        {
            "doubleSided" : true,
            "name" : "Material.003",
            "pbrMetallicRoughness" : {
                "baseColorFactor" : [
                    0.800000011920929,
                    0.800000011920929,
                    0.800000011920929,
                    1
                ],
                "metallicFactor" : 0,
                "roughnessFactor" : 0.5
            }
        },
        {
            "doubleSided" : true,
            "name" : "Material.004",
            "pbrMetallicRoughness" : {
                "baseColorFactor" : [
                    0.006370541639626026,
                    0.006370541639626026,
                    0.006370541639626026,
                    1
                ],
                "metallicFactor" : 0,
                "roughnessFactor" : 0.5
            }
        }
    ],
    "meshes" : [
        {
            "name" : "Cube.002",
            "primitives" : [
                {
                    "attributes" : {
                        "POSITION" : 0,
                        "NORMAL" : 1,
                        "TEXCOORD_0" : 2
                    },
                    "indices" : 3,
                    "material" : 0
                }
            ]
        },
        {
            "name" : "Cube.003",
            "primitives" : [
                {
                    "attributes" : {
                        "POSITION" : 4,
                        "NORMAL" : 5,
                        "TEXCOORD_0" : 6
                    },
                    "indices" : 7,
                    "material" : 1
                }
            ]
        },
        {
            "name" : "Cube.005",
            "primitives" : [
                {
                    "attributes" : {
                        "POSITION" : 8,
                        "NORMAL" : 9,
                        "TEXCOORD_0" : 10
                    },
                    "indices" : 11,
                    "material" : 2
                },
                {
                    "attributes" : {
                        "POSITION" : 12,
                        "NORMAL" : 13,
                        "TEXCOORD_0" : 14
                    },
                    "indices" : 15,
                    "material" : 3
                }
            ]
        }
    ],
    "accessors" : [
        {
            "bufferView" : 0,
            "componentType" : 5126,
            "count" : 10055,
            "max" : [
                69.64192962646484,
                1.0411481857299805,
                1.5624340772628784
            ],
            "min" : [
                -0.8290053009986877,
                -9.633238792419434,
                -24.42522430419922
            ],
            "type" : "VEC3"
        },
        {
            "bufferView" : 1,
            "componentType" : 5126,
            "count" : 10055,
            "type" : "VEC3"
        },
        {
            "bufferView" : 2,
            "componentType" : 5126,
            "count" : 10055,
            "type" : "VEC2"
        },
        {
            "bufferView" : 3,
            "componentType" : 5123,
            "count" : 15069,
            "type" : "SCALAR"
        },
        {
            "bufferView" : 4,
            "componentType" : 5126,
            "count" : 253,
            "max" : [
                6.507483959197998,
                0.9166667461395264,
                24.36579704284668
            ],
            "min" : [
                -6.507483959197998,
                -1.7433876991271973,
                -0.8395062685012817
            ],
            "type" : "VEC3"
        },
        {
            "bufferView" : 5,
            "componentType" : 5126,
            "count" : 253,
            "type" : "VEC3"
        },
        {
            "bufferView" : 6,
            "componentType" : 5126,
            "count" : 253,
            "type" : "VEC2"
        },
        {
            "bufferView" : 7,
            "componentType" : 5123,
            "count" : 720,
            "type" : "SCALAR"
        },
        {
            "bufferView" : 8,
            "componentType" : 5126,
            "count" : 1184,
            "max" : [
                1.0000001192092896,
                1.0000001192092896,
                1.0000001192092896
            ],
            "min" : [
                -1.0000001192092896,
                -1.0000001192092896,
                -1.0000001192092896
            ],
            "type" : "VEC3"
        },
        {
            "bufferView" : 9,
            "componentType" : 5126,
            "count" : 1184,
            "type" : "VEC3"
        },
        {
            "bufferView" : 10,
            "componentType" : 5126,
            "count" : 1184,
            "type" : "VEC2"
        },
        {
            "bufferView" : 11,
            "componentType" : 5123,
            "count" : 1776,
            "type" : "SCALAR"
        },
        {
            "bufferView" : 12,
            "componentType" : 5126,
            "count" : 640,
            "max" : [
                0.1605137139558792,
                0.16051451861858368,
                1.055885672569275
            ],
            "min" : [
                -0.1605137139558792,
                -0.1605130136013031,
                0.8373235464096069
            ],
            "type" : "VEC3"
        },
        {
            "bufferView" : 13,
            "componentType" : 5126,
            "count" : 640,
            "type" : "VEC3"
        },
        {
            "bufferView" : 14,
            "componentType" : 5126,
            "count" : 640,
            "type" : "VEC2"
        },
        {
            "bufferView" : 15,
            "componentType" : 5123,
            "count" : 960,
            "type" : "SCALAR"
        }
    ],
    "bufferViews" : [
        {
            "buffer" : 0,
            "byteLength" : 120660,
            "byteOffset" : 0
        },
        {
            "buffer" : 0,
            "byteLength" : 120660,
            "byteOffset" : 120660
        },
        {
            "buffer" : 0,
            "byteLength" : 80440,
            "byteOffset" : 241320
        },
        {
            "buffer" : 0,
            "byteLength" : 30138,
            "byteOffset" : 321760
        },
        {
            "buffer" : 0,
            "byteLength" : 3036,
            "byteOffset" : 351900
        },
        {
            "buffer" : 0,
            "byteLength" : 3036,
            "byteOffset" : 354936
        },
        {
            "buffer" : 0,
            "byteLength" : 2024,
            "byteOffset" : 357972
        },
        {
            "buffer" : 0,
            "byteLength" : 1440,
            "byteOffset" : 359996
        },
        {
            "buffer" : 0,
            "byteLength" : 14208,
            "byteOffset" : 361436
        },
        {
            "buffer" : 0,
            "byteLength" : 14208,
            "byteOffset" : 375644
        },
        {
            "buffer" : 0,
            "byteLength" : 9472,
            "byteOffset" : 389852
        },
        {
            "buffer" : 0,
            "byteLength" : 3552,
            "byteOffset" : 399324
        },
        {
            "buffer" : 0,
            "byteLength" : 7680,
            "byteOffset" : 402876
        },
        {
            "buffer" : 0,
            "byteLength" : 7680,
            "byteOffset" : 410556
        },
        {
            "buffer" : 0,
            "byteLength" : 5120,
            "byteOffset" : 418236
        },
        {
            "buffer" : 0,
            "byteLength" : 1920,
            "byteOffset" : 423356
        }
    ],
    "buffers" : [
        {
            "byteLength" : 425276,
            "uri" : "brille.bin"
        }
    ]
}
